# xmcd
#
# Track frame offsets: 
#        150
#        3822
#        18722
#        39537
#        62632
#        80884
#        82329
#        93281
#        110765
#        126304
#        131009
#        145231
#        168211
#        169820
#        189324
#        207990
#        217724
#
# Disc length: 3147 seconds
#
# Revision: 0
# Processed by: cddbd v1.5.2PL0 Copyright (c) Steve Scherf et al.
# Submitted via: ExactAudioCopy v0.99pb4
#
DISCID=ee0c4911
DTITLE=Everlast - Whitey Ford sings the blues
DYEAR=1998
DGENRE=Blues
TTITLE0=The White Boy Is Back
TTITLE1=Money (Dollar Bill) feat. Sadat X
TTITLE2=Ends
TTITLE3=What It's Like
TTITLE4=Get Down
TTITLE5=Sen Dog
TTITLE6=Tired
TTITLE7=Hot To Death
TTITLE8=Painkillers
TTITLE9=Prince Paul
TTITLE10=Praise The Lord
TTITLE11=Today (Watch Me Shine) feat. Bronx Style Bob
TTITLE12=Guru
TTITLE13=Death Comes Callin´
TTITLE14=Funky Beat feat. Casual and Sadat X
TTITLE15=The Letter
TTITLE16=7 Years
EXTD=
EXTT0=
EXTT1=
EXTT2=
EXTT3=
EXTT4=
EXTT5=
EXTT6=
EXTT7=
EXTT8=
EXTT9=
EXTT10=
EXTT11=
EXTT12=
EXTT13=
EXTT14=
EXTT15=
EXTT16=
PLAYORDER=
